<svg width="256" height="256" viewBox="0 0 256 256" fill="none" xmlns="http://www.w3.org/2000/svg">
<g clip-path="url(#clip0_1282_320)">
<path fill-rule="evenodd" clip-rule="evenodd" d="M44.7999 225.954C33.0175 225.954 23.4688 216.405 23.4688 204.623V105.864L48.0511 32.2453C50.6175 24.5653 57.8047 19.3877 65.9007 19.3877H190.099C198.195 19.3877 205.382 24.5653 207.949 32.2453L232.531 105.864V204.623C232.531 216.405 222.982 225.954 211.2 225.954H44.7999Z" fill="#FFA300"/>
<path d="M181.491 43.4551H74.5017C69.373 43.4551 65.2153 47.6127 65.2153 52.7415V138.073C65.2153 143.201 69.373 147.359 74.5017 147.359H181.491C186.619 147.359 190.777 143.201 190.777 138.073V52.7415C190.777 47.6127 186.619 43.4551 181.491 43.4551Z" fill="#D9DDE0"/>
<path d="M196.91 72.4004H59.0989C53.6767 72.4004 49.2812 76.7959 49.2812 82.218V191.344C49.2812 196.766 53.6767 201.162 59.0989 201.162H196.91C202.332 201.162 206.728 196.766 206.728 191.344V82.218C206.728 76.7959 202.332 72.4004 196.91 72.4004Z" fill="white"/>
<path fill-rule="evenodd" clip-rule="evenodd" d="M232.531 105.857H23.4688V207.137C23.4688 217.531 31.8911 225.953 42.2848 225.953H213.722C224.115 225.953 232.538 217.531 232.538 207.137L232.531 105.857Z" fill="#FFC33A"/>
</g>
<defs>
<clipPath id="clip0_1282_320">
<rect width="256" height="256" fill="white"/>
</clipPath>
</defs>
</svg>
