<svg width="40" height="40" viewBox="0 0 40 40" fill="none" xmlns="http://www.w3.org/2000/svg">
<g clip-path="url(#clip0_1282_265)">
<path fill-rule="evenodd" clip-rule="evenodd" d="M2.0542 10.2939V31.6659C2.0542 33.1849 3.2852 34.4159 4.8042 34.4159H29.8592C31.3782 34.4159 32.6092 33.1849 32.6092 31.6659V13.0439C32.6092 11.5249 31.3782 10.2939 29.8592 10.2939H2.0542Z" fill="#FFA300"/>
<path fill-rule="evenodd" clip-rule="evenodd" d="M7.64205 17.4L3.04105 31.41C2.55405 32.892 3.65805 34.417 5.21805 34.417H29.9531C31.5371 34.417 32.9421 33.4 33.4371 31.894L38.038 17.884C38.525 16.402 37.421 14.877 35.861 14.877H11.1251C9.54105 14.877 8.13605 15.894 7.64105 17.4H7.64205Z" fill="#FFC33A"/>
<path fill-rule="evenodd" clip-rule="evenodd" d="M2.05422 10.294H18.1352L14.3672 6.52598C13.7642 5.92298 12.9462 5.58398 12.0932 5.58398H4.80322C3.28422 5.58398 2.05322 6.81498 2.05322 8.33398L2.05422 10.294Z" fill="#FFA300"/>
</g>
<defs>
<clipPath id="clip0_1282_265">
<rect width="40" height="40" fill="white"/>
</clipPath>
</defs>
</svg>
